<?xml version="1.0" encoding="iso-8859-1"?>
<!-- Generator: Adobe Illustrator 19.0.0, SVG Export Plug-In . SVG Version: 6.00 Build 0)  -->
<svg version="1.1" id="Capa_1" xmlns="http://www.w3.org/2000/svg" xmlns:xlink="http://www.w3.org/1999/xlink" x="0px" y="0px"
	 viewBox="0 0 512 512" style="enable-background:new 0 0 512 512;" xml:space="preserve">
<path style="fill:#6099B1;" d="M505.127,128.009c-4.284-2.762-9.677-3.16-14.32-1.055l-105.451,47.795l-257.104-56.99
	c-3.179-0.705-6.499-0.356-9.462,0.993L8.784,168.842C3.434,171.278,0,176.615,0,182.494v252.11c0,5.1,2.591,9.851,6.879,12.612
	c4.288,2.76,9.685,3.154,14.328,1.043l105.451-47.932l257.1,56.792c1.069,0.236,2.153,0.353,3.235,0.353
	c2.119,0,4.227-0.449,6.181-1.333l110.007-49.746c5.369-2.428,8.819-7.775,8.819-13.667v-252.11
	C512,135.519,509.412,130.771,505.127,128.009z"/>
<path style="fill:#A8D3D8;" d="M256,146.076l-127.747-28.317c-3.179-0.705-6.499-0.356-9.462,0.993L8.784,168.842
	C3.434,171.278,0,176.615,0,182.494v252.11c0,5.1,2.591,9.851,6.879,12.612c4.288,2.76,9.685,3.154,14.328,1.043l105.451-47.932
	l128.409,28.365L256,146.076z"/>
<path style="fill:#DEECF1;" d="M118.791,118.752L8.784,168.842C3.434,171.278,0,176.615,0,182.494v252.11
	c0,5.1,2.591,9.851,6.879,12.612c4.288,2.76,9.685,3.154,14.328,1.043l103.8-47.181V117.414
	C122.875,117.414,120.754,117.858,118.791,118.752z"/>
<path style="fill:#A8D3D8;" d="M505.127,128.009c-4.284-2.762-9.677-3.16-14.32-1.055l-103.815,47.053v283.465l0,0
	c2.119,0,4.227-0.449,6.181-1.333l110.007-49.746c5.369-2.428,8.819-7.775,8.819-13.667v-252.11
	C512,135.519,509.412,130.771,505.127,128.009z"/>
<path style="fill:#F2A01C;" d="M325.733,209.204l-0.271-0.27c-7.393-7.387-19.374-7.385-26.764,0.005l-23.588,23.588V73.449
	c0-10.45-8.471-18.921-18.921-18.921h-0.382c-10.45,0-18.921,8.471-18.921,18.921v159.077l-23.593-23.593
	c-7.389-7.389-19.37-7.389-26.759,0l-0.271,0.271c-7.389,7.389-7.389,19.369,0,26.759l51.478,51.478
	c10.083,10.083,26.431,10.083,36.514,0l51.483-51.483C333.127,228.569,333.125,216.589,325.733,209.204z"/>
<path style="fill:#FFC87D;" d="M256.19,54.528h-0.382c-10.45,0-18.921,8.471-18.921,18.921v159.077l-23.593-23.593
	c-7.389-7.389-19.37-7.389-26.759,0l-0.271,0.271c-7.389,7.389-7.389,19.369,0,26.759l51.478,51.478
	c4.917,4.917,11.323,7.436,17.766,7.557C255.508,294.997,255.808,54.528,256.19,54.528z"/>
<g>
</g>
<g>
</g>
<g>
</g>
<g>
</g>
<g>
</g>
<g>
</g>
<g>
</g>
<g>
</g>
<g>
</g>
<g>
</g>
<g>
</g>
<g>
</g>
<g>
</g>
<g>
</g>
<g>
</g>
</svg>
