<?xml version="1.0" encoding="iso-8859-1"?>
<!-- Generator: Adobe Illustrator 19.0.0, SVG Export Plug-In . SVG Version: 6.00 Build 0)  -->
<svg version="1.1" id="Capa_1" xmlns="http://www.w3.org/2000/svg" xmlns:xlink="http://www.w3.org/1999/xlink" x="0px" y="0px"
	 viewBox="0 0 512 512" style="enable-background:new 0 0 512 512;" xml:space="preserve">
<g>
	<g>
		<path d="M505.43,100.597c-4.111-2.792-9.336-3.368-13.955-1.538l-85.182,33.746v324.381l96.232-38.123
			c5.719-2.266,9.475-7.794,9.475-13.945V113.004C512,108.036,509.54,103.39,505.43,100.597z"/>
	</g>
</g>
<g>
	<g>
		<path d="M112.121,102.595L9.751,140.83C3.887,143.021,0,148.622,0,154.882v292.113c0,4.916,2.409,9.521,6.448,12.323
			c2.546,1.768,5.536,2.677,8.553,2.677c1.768,0,3.545-0.313,5.248-0.948l91.873-34.314L112.121,102.595L112.121,102.595z"/>
	</g>
</g>
<g>
	<g>
		<path d="M303.044,125.705v27.158c0.986-0.061,1.977-0.092,2.974-0.092c12.516,0,24.284,4.872,33.137,13.718l0.242,0.242
			c8.858,8.851,13.738,20.622,13.74,33.145c0.002,12.522-4.873,24.295-13.728,33.15l-45.914,45.914
			c-10.015,10.015-23.332,15.531-37.496,15.531s-27.479-5.516-37.495-15.531l-45.91-45.91c-8.854-8.853-13.73-20.625-13.73-33.146
			s4.876-24.292,13.738-33.154l0.232-0.232c8.854-8.854,20.625-13.73,33.146-13.73c0.997,0,1.988,0.031,2.974,0.092v-42.07
			l-66.833-10.594v322.487l234.172,37.122V137.317L303.044,125.705z"/>
	</g>
</g>
<g>
	<g>
		<path d="M318.19,187.952l-0.241-0.241c-6.593-6.588-17.279-6.586-23.869,0.004l-21.037,21.037V66.88
			c0-9.32-7.555-16.875-16.875-16.875h-0.341c-9.32,0-16.875,7.555-16.875,16.875v141.87l-21.04-21.04
			c-6.59-6.59-17.275-6.59-23.865,0l-0.241,0.241c-6.59,6.59-6.59,17.275,0,23.865l45.91,45.91c8.992,8.992,23.572,8.992,32.564,0
			l45.914-45.914C324.783,205.223,324.781,194.539,318.19,187.952z"/>
	</g>
</g>
<g>
</g>
<g>
</g>
<g>
</g>
<g>
</g>
<g>
</g>
<g>
</g>
<g>
</g>
<g>
</g>
<g>
</g>
<g>
</g>
<g>
</g>
<g>
</g>
<g>
</g>
<g>
</g>
<g>
</g>
</svg>
